<svg xmlns="http://www.w3.org/2000/svg" width="24" height="24" viewBox="0 0 24 24"><path fill-rule="evenodd" d="M3 4.5a.5.5 0 0 0 0 1h.71a1.5 1.5 0 0 1 1.4907 1.3343L6.0525 14.5h9.6191c.3978 0 .7793.158 1.0606.4393l.3377.3377a4.02 4.02 0 0 1 .77-.6442l-.4006-.4006a2.5 2.5 0 0 0-1.7677-.7322H15.5V12c0-1.1046-.8954-2-2-2h-3c-1.1046 0-2 .8954-2 2v1.5H6.9475l-.7529-6.776C6.054 5.4577 4.9838 4.5 3.71 4.5zm6.5 9h5V12c0-.5523-.4477-1-1-1h-3c-.5523 0-1 .4477-1 1z" clip-rule="evenodd"/><path d="M16.291 19.5c.147.363.345.699.587 1H7.123a4 4 0 0 0 .587-1zM16.291 16.5a3.97 3.97 0 0 0-.26 1H7.969a3.97 3.97 0 0 0-.26-1z"/><path fill-rule="evenodd" d="M7 18c0 1.657-1.343 3-3 3s-3-1.343-3-3 1.343-3 3-3 3 1.343 3 3m-1 0c0 1.105-.895 2-2 2s-2-.895-2-2 .895-2 2-2 2 .895 2 2M23 18c0 1.657-1.343 3-3 3s-3-1.343-3-3 1.343-3 3-3 3 1.343 3 3m-1 0c0 1.105-.895 2-2 2s-2-.895-2-2 .895-2 2-2 2 .895 2 2" clip-rule="evenodd"/></svg>